<?xml version="1.0" encoding="utf-8"?>
<!-- Generator: Adobe Illustrator 16.0.0, SVG Export Plug-In . SVG Version: 6.00 Build 0)  -->
<!DOCTYPE svg PUBLIC "-//W3C//DTD SVG 1.1//EN" "http://www.w3.org/Graphics/SVG/1.1/DTD/svg11.dtd">
<svg version="1.1" id="Layer_1" xmlns="http://www.w3.org/2000/svg" xmlns:xlink="http://www.w3.org/1999/xlink" x="0px" y="0px"
	 width="704.701px" height="175.1px" viewBox="-0.25 0 704.701 175.1" enable-background="new -0.25 0 704.701 175.1"
	 xml:space="preserve">
<g>
	<g>
		<path fill="#139CD8" d="M103.75,19.1c8.1-8.399,19.3-13.6,31.7-13.6c16.5,0,30.899,9.2,38.6,22.899c6.7-3,14-4.6,21.8-4.6
			c29.801,0,53.9,24.4,53.9,54.4s-24.1,54.399-53.9,54.399c-3.6,0-7.199-0.399-10.6-1.1c-6.8,12-19.6,20.2-34.4,20.2
			c-6.199,0-12-1.4-17.199-4c-6.801,16.1-22.801,27.399-41.4,27.399c-19.4,0-35.9-12.3-42.2-29.399c-2.8,0.6-5.6,0.899-8.6,0.899
			c-23.101,0-41.7-18.899-41.7-42.2c0-15.6,8.4-29.199,20.9-36.5c-2.601-5.899-4-12.399-4-19.3C16.549,21.7,38.349,0,65.15,0
			C80.95,0,94.95,7.5,103.75,19.1"/>
		<path fill="#FFFFFF" d="M35.95,90.8c-0.2,0.4,0.1,0.5,0.1,0.6c0.5,0.301,0.9,0.601,1.4,0.9c2.6,1.4,5,1.7,7.5,1.7
			c5.1,0,8.3-2.7,8.3-7.101v-0.1c0-4.1-3.6-5.5-7-6.6l-0.4-0.2c-2.5-0.8-4.699-1.5-4.699-3.2v-0.1c0-1.4,1.3-2.5,3.3-2.5
			c2.2,0,4.8,0.699,6.5,1.699c0,0,0.5,0.301,0.7-0.199c0.1-0.301,1-2.601,1-2.801c0.1-0.3-0.101-0.5-0.2-0.6c-1.9-1.2-4.601-2-7.4-2
			h-0.5c-4.7,0-8,2.8-8,6.9v0.1c0,4.3,3.601,5.7,7,6.6l0.5,0.2c2.5,0.8,4.601,1.4,4.601,3.101v0.1c0,1.6-1.4,2.8-3.601,2.8
			c-0.899,0-3.6,0-6.6-1.899c-0.4-0.2-0.601-0.4-0.8-0.5c-0.101-0.101-0.5-0.2-0.7,0.199L35.95,90.8z"/>
		<path fill="#FFFFFF" d="M111.049,90.8c-0.2,0.4,0.101,0.5,0.101,0.6c0.5,0.301,0.899,0.601,1.399,0.9c2.601,1.4,5,1.7,7.5,1.7
			c5.101,0,8.3-2.7,8.3-7.101v-0.1c0-4.1-3.6-5.5-7-6.6L120.95,80.1c-2.5-0.8-4.7-1.5-4.7-3.2v-0.1c0-1.4,1.3-2.5,3.3-2.5
			c2.2,0,4.8,0.7,6.5,1.7c0,0,0.5,0.3,0.7-0.2c0.1-0.3,1-2.6,1-2.8c0.1-0.3-0.1-0.5-0.2-0.601c-1.899-1.199-4.6-2-7.399-2h-0.5
			c-4.7,0-8,2.801-8,6.9v0.1c0,4.301,3.6,5.7,7,6.601l0.5,0.2c2.5,0.8,4.6,1.399,4.6,3.1v0.1c0,1.601-1.4,2.801-3.6,2.801
			c-0.9,0-3.601,0-6.601-1.9c-0.399-0.2-0.6-0.4-0.8-0.5c-0.1-0.1-0.5-0.2-0.7,0.2L111.049,90.8z"/>
		<path fill="#FFFFFF" d="M166.65,77.6c-0.4-1.399-1.101-2.7-1.9-3.7c-0.9-1-2-1.899-3.3-2.5c-1.3-0.6-2.9-0.899-4.601-0.899
			c-1.699,0-3.3,0.3-4.6,0.899c-1.3,0.601-2.4,1.5-3.3,2.5c-0.9,1-1.5,2.301-1.9,3.7c-0.399,1.4-0.6,3-0.6,4.601
			c0,1.6,0.2,3.199,0.6,4.6c0.4,1.4,1.101,2.7,1.9,3.7c0.899,1,2,1.899,3.3,2.5c1.3,0.6,2.9,0.899,4.6,0.899
			c1.7,0,3.301-0.3,4.601-0.899c1.3-0.601,2.399-1.4,3.3-2.5c0.9-1,1.5-2.3,1.9-3.7c0.399-1.4,0.6-3,0.6-4.6
			C167.25,80.5,167.049,79,166.65,77.6 M162.349,82.2c0,2.5-0.5,4.399-1.399,5.8c-0.9,1.399-2.3,2-4.2,2s-3.3-0.7-4.2-2
			c-0.899-1.4-1.399-3.3-1.399-5.8s0.5-4.4,1.399-5.801c0.9-1.399,2.2-2,4.2-2c1.9,0,3.3,0.7,4.2,2
			C161.849,77.7,162.349,79.7,162.349,82.2"/>
		<path fill="#FFFFFF" d="M201.75,89.4c-0.1-0.399-0.5-0.3-0.5-0.3c-0.6,0.2-1.3,0.5-2,0.601c-0.7,0.1-1.5,0.199-2.3,0.199
			c-2.101,0-3.7-0.6-4.9-1.8s-1.8-3.2-1.8-5.899c0-2.4,0.6-4.2,1.6-5.601c1-1.399,2.601-2.1,4.801-2.1c1.8,0,3.1,0.2,4.5,0.6
			c0,0,0.3,0.101,0.5-0.3c0.399-1,0.699-1.8,1.1-2.9c0.1-0.3-0.2-0.5-0.3-0.5c-0.601-0.199-1.9-0.6-2.9-0.699
			c-0.899-0.101-2-0.2-3.2-0.2c-1.8,0-3.399,0.3-4.8,0.899c-1.399,0.601-2.5,1.4-3.5,2.5c-0.899,1-1.6,2.301-2.1,3.7
			c-0.5,1.4-0.7,3-0.7,4.601c0,3.6,1,6.399,2.8,8.5c1.9,2.1,4.7,3.199,8.5,3.199c2.2,0,4.4-0.399,6.101-1.1c0,0,0.3-0.2,0.199-0.5
			L201.75,89.4z"/>
		<path fill="#FFFFFF" d="M223.65,76.8c-0.4-1.4-1.301-2.8-1.9-3.4c-0.9-1-1.8-1.699-2.8-2.1c-1.2-0.5-2.601-0.8-4.2-0.8
			c-1.8,0-3.5,0.3-4.8,0.899c-1.3,0.601-2.5,1.5-3.3,2.5c-0.9,1.101-1.5,2.301-2,3.801c-0.4,1.399-0.601,3-0.601,4.6
			c0,1.7,0.2,3.2,0.7,4.6c0.4,1.4,1.1,2.7,2.1,3.7s2.2,1.8,3.601,2.4c1.5,0.6,3.2,0.899,5.3,0.8c4.2,0,6.4-0.9,7.3-1.4
			c0.2-0.1,0.3-0.199,0.101-0.699l-1-2.7c-0.101-0.4-0.5-0.2-0.5-0.2c-1,0.4-2.5,1.1-6,1.1c-2.2,0-3.9-0.699-5-1.699
			c-1.101-1.101-1.601-2.601-1.7-4.801h14.5c0,0,0.399,0,0.399-0.399C224.15,82.9,224.65,80,223.65,76.8 M209.25,79.8
			c0.2-1.4,0.6-2.5,1.2-3.4c0.899-1.399,2.2-2.1,4.1-2.1c1.9,0,3.2,0.8,4.101,2.1c0.6,0.9,0.899,2.101,1,3.4H209.25z"/>
		<path fill="#FFFFFF" d="M107.549,76.8c-0.399-1.4-1.3-2.8-1.899-3.4c-0.9-1-1.801-1.699-2.801-2.1c-1.199-0.5-2.6-0.8-4.199-0.8
			c-1.801,0-3.5,0.3-4.801,0.899c-1.3,0.601-2.5,1.5-3.3,2.5c-0.899,1.101-1.5,2.301-2,3.801c-0.399,1.399-0.6,3-0.6,4.6
			c0,1.7,0.2,3.2,0.7,4.6c0.399,1.4,1.1,2.7,2.1,3.7s2.2,1.8,3.6,2.4c1.5,0.6,3.2,0.899,5.301,0.8c4.199,0,6.399-0.9,7.3-1.4
			c0.2-0.1,0.3-0.199,0.1-0.699l-1-2.7c-0.1-0.4-0.5-0.2-0.5-0.2c-1,0.4-2.5,1.1-6,1.1c-2.2,0-3.899-0.699-5-1.699
			c-1.1-1.101-1.6-2.601-1.7-4.801h14.5c0,0,0.4,0,0.4-0.399C108.049,82.9,108.549,80,107.549,76.8 M93.15,79.8
			c0.199-1.4,0.6-2.5,1.199-3.4c0.9-1.399,2.2-2.1,4.101-2.1c1.899,0,3.2,0.8,4.1,2.1c0.601,0.9,0.9,2.101,1,3.4H93.15z"/>
		<path fill="#FFFFFF" d="M67.549,79.1c-0.6,0-1.3-0.1-2.3-0.1c-1.2,0-2.4,0.2-3.6,0.5c-1.101,0.3-2.2,0.8-3,1.399
			c-0.9,0.601-1.601,1.4-2.101,2.4s-0.8,2.1-0.8,3.3c0,1.3,0.2,2.4,0.7,3.3c0.399,0.9,1.1,1.7,1.899,2.301c0.801,0.6,1.801,1,3,1.3
			c1.101,0.3,2.4,0.399,3.801,0.399c1.5,0,3-0.1,4.399-0.399c1.4-0.2,3.2-0.601,3.7-0.7s1-0.3,1-0.3c0.4-0.101,0.3-0.5,0.3-0.5V78.7
			c0-2.9-0.8-5.101-2.3-6.4s-3.8-2-6.7-2c-1.1,0-2.8,0.1-3.899,0.4c0,0-3.2,0.6-4.5,1.6c0,0-0.301,0.2-0.101,0.6l1,2.801
			c0.101,0.399,0.5,0.199,0.5,0.199s0.101,0,0.2-0.1c2.8-1.5,6.3-1.5,6.3-1.5c1.601,0,2.8,0.3,3.601,0.9
			c0.8,0.6,1.199,1.5,1.199,3.5v0.6C68.75,79.2,67.549,79.1,67.549,79.1 M61.849,89.3c-0.6-0.5-0.6-0.6-0.8-0.9
			c-0.3-0.399-0.5-1-0.5-1.899c0-1.3,0.4-2.2,1.3-2.8c0,0,1.2-1.101,4.2-1c2.101,0,3.9,0.3,3.9,0.3v6.6c0,0-1.8,0.4-3.9,0.5
			C63.15,90.3,61.849,89.3,61.849,89.3"/>
		<path fill="#FFFFFF" d="M184.549,71.6c0.101-0.3-0.1-0.5-0.2-0.5c-0.199-0.1-1.5-0.399-2.399-0.399c-1.8-0.101-2.8,0.199-3.7,0.6
			s-1.9,1.1-2.4,1.8v-1.8c0-0.2-0.199-0.4-0.399-0.4h-3.9c-0.2,0-0.399,0.2-0.399,0.4V93c0,0.2,0.199,0.399,0.399,0.399h3.8
			c0.2,0,0.4-0.199,0.4-0.399V82.2c0-1.5,0.2-2.9,0.5-3.801c0.3-0.899,0.7-1.6,1.3-2.1c0.5-0.5,1.101-0.9,1.8-1.1
			c0.7-0.2,1.4-0.301,1.9-0.301c0.8,0,1.6,0.2,1.6,0.2c0.301,0,0.4-0.1,0.5-0.399C183.65,74,184.349,72,184.549,71.6"/>
		<path fill="#FFFFFF" d="M148.75,61.6c-0.5-0.1-0.9-0.2-1.4-0.3c-0.6-0.1-1.199-0.2-2-0.2c-2.6,0-4.699,0.7-6.1,2.2
			s-2.4,3.7-2.9,6.6l-0.199,1h-3.301c0,0-0.399,0-0.5,0.4l-0.5,3c0,0.3,0.101,0.5,0.5,0.5h3.2l-3.3,18.1c-0.3,1.5-0.5,2.7-0.9,3.601
			c-0.3,0.899-0.6,1.6-1,2.1c-0.399,0.5-0.699,0.8-1.3,1c-0.5,0.2-1.1,0.2-1.7,0.2c-0.3,0-0.8-0.1-1.199-0.1
			c-0.301-0.101-0.5-0.101-0.801-0.301c0,0-0.399-0.1-0.5,0.2c-0.1,0.3-1,2.7-1.1,2.9c-0.1,0.3,0,0.5,0.2,0.6
			c0.399,0.2,0.7,0.2,1.3,0.4c0.8,0.2,1.5,0.2,2.1,0.2c1.301,0,2.601-0.2,3.601-0.601c1-0.399,1.899-1,2.7-1.899
			c0.8-0.9,1.399-1.9,1.899-3.2s0.9-3,1.3-4.9l3.301-18.5h4.8c0,0,0.399,0,0.5-0.399l0.5-3c0-0.301-0.101-0.5-0.5-0.5h-4.601
			c0-0.101,0.2-1.7,0.801-3.301c0.199-0.699,0.699-1.199,1-1.5c0.399-0.399,0.8-0.6,1.199-0.8c0.5-0.1,1-0.2,1.601-0.2
			c0.399,0,0.899,0.101,1.2,0.101c0.399,0.1,0.6,0.1,0.699,0.2c0.5,0.1,0.5,0,0.601-0.2l1.1-3C149.15,61.8,148.849,61.7,148.75,61.6
			"/>
		<path fill="#FFFFFF" d="M84.049,93c0,0.2-0.2,0.399-0.399,0.399h-3.801C79.65,93.4,79.45,93.2,79.45,93V62
			c0-0.2,0.2-0.4,0.399-0.4h3.7c0.2,0,0.4,0.2,0.4,0.4v31H84.049z"/>
	</g>
	<g>
		<path fill="#7D888E" d="M269.65,62.1h4.8v5.4c2.1-3.2,5-6.101,10.399-6.101c5.2,0,8.601,2.801,10.301,6.4
			c2.3-3.5,5.699-6.4,11.3-6.4c7.399,0,11.899,5,11.899,12.9v19.9h-4.8V75.5c0-6.2-3.1-9.7-8.3-9.7c-4.8,0-8.9,3.6-8.9,9.9v18.5
			h-4.699V75.4c0-6-3.2-9.6-8.301-9.6c-5.1,0-8.899,4.2-8.899,10.1V94.2h-4.8V62.1z"/>
		<path fill="#7D888E" d="M322.349,84.9v-0.1c0-6.9,5.601-10.5,13.7-10.5c4.101,0,7,0.6,9.8,1.4v-1c0-5.7-3.5-8.7-9.5-8.7
			c-3.8,0-6.8,0.899-9.8,2.3l-1.399-3.9c3.5-1.6,7-2.699,11.699-2.699c4.5,0,8.101,1.199,10.4,3.5c2.2,2.199,3.4,5.3,3.4,9.399V94.2
			h-4.7V89.4c-2.2,2.9-5.9,5.5-11.601,5.5C328.25,94.9,322.349,91.5,322.349,84.9z M345.95,82.5v-3c-2.4-0.7-5.5-1.4-9.4-1.4
			c-6,0-9.399,2.601-9.399,6.5V84.7c0,4,3.699,6.399,8.1,6.399C341.15,91.1,345.95,87.5,345.95,82.5z"/>
		<path fill="#7D888E" d="M356.65,62.1h4.8v8.4c2.399-5.3,7-9.2,13.101-8.9v5.2h-0.4c-7,0-12.7,5-12.7,14.7v12.8h-4.8V62.1z"/>
		<path fill="#7D888E" d="M377.849,48.9h4.801V80.2L399.951,62.1h6L392.45,75.9L406.349,94.2h-5.699l-11.5-15l-6.5,6.6v8.4h-4.801
			V48.9L377.849,48.9z"/>
		<path fill="#7D888E" d="M421.75,90.8c4.4,0,7.5-1.8,10.1-4.5l3,2.7c-3.199,3.6-7.1,6-13.199,6c-8.801,0-16-6.8-16-16.8
			c0-9.301,6.5-16.801,15.4-16.801c9.5,0,15,7.601,15,17c0,0.4,0,0.9-0.1,1.7h-25.5C411.15,86.9,416.05,90.8,421.75,90.8z
			 M431.15,76.3c-0.6-5.8-3.9-10.8-10.301-10.8c-5.5,0-9.799,4.6-10.398,10.8H431.15z"/>
		<path fill="#7D888E" d="M441.951,85.7V66.4h-4.4V62.2h4.5v-9.7h4.799v9.7h10.201V66.4h-10.201V85.2c0,3.899,2.201,5.3,5.4,5.3
			c1.6,0,3-0.3,4.701-1.101V93.5c-1.701,0.899-3.5,1.399-5.801,1.399C445.951,94.8,441.951,92.3,441.951,85.7z"/>
		<path fill="#7D888E" d="M461.55,49.8h5.5v5.3h-5.5V49.8z M461.849,62.1h4.801V94.2h-4.801V62.1z"/>
		<path fill="#7D888E" d="M473.65,62.1h4.801V67.7c2.1-3.5,5.5-6.301,11-6.301c7.799,0,12.299,5.2,12.299,12.9v19.9h-4.799V75.5
			c0-6-3.201-9.7-8.9-9.7c-5.5,0-9.6,4-9.6,10.1v18.4h-4.801V62.1z"/>
		<path fill="#7D888E" d="M507.55,99.9l2.199-3.699c3.701,2.699,7.801,4.1,12.4,4.1c7.1,0,11.699-3.9,11.699-11.4V85
			c-2.799,3.7-6.699,6.8-12.6,6.8c-7.699,0-15.1-5.8-15.1-15v-0.1c0-9.4,7.5-15.2,15.1-15.2c6,0,9.9,3,12.6,6.5v-5.8h4.801v26.5
			c0,5-1.5,8.8-4.1,11.399c-2.9,2.9-7.1,4.3-12.201,4.3C516.849,104.3,511.849,102.8,507.55,99.9z M533.951,76.7V76.6
			c0-6.6-5.701-10.899-11.801-10.899s-11.1,4.199-11.1,10.8v0.1c0,6.5,5.199,10.9,11.1,10.9C528.15,87.5,533.951,83.1,533.951,76.7z
			"/>
		<path fill="#7D888E" d="M557.75,78.3v-0.1c0-9.101,7.1-16.801,16.5-16.801c6.1,0,9.9,2.5,12.9,5.7l-3.199,3.4
			c-2.5-2.7-5.4-4.8-9.801-4.8c-6.5,0-11.5,5.5-11.5,12.399V78.2c0,7,5.1,12.5,11.801,12.5c4.1,0,7.299-2.101,9.799-4.801l3,2.9
			c-3.199,3.6-7.1,6.2-13.1,6.2C564.849,95,557.75,87.4,557.75,78.3z"/>
		<path fill="#7D888E" d="M591.65,48.9h4.801v45.4h-4.801V48.9z"/>
		<path fill="#7D888E" d="M601.55,78.3v-0.1c0-9.101,7.1-16.801,16.799-16.801c9.602,0,16.701,7.601,16.701,16.7V78.2
			c0,9.1-7.1,16.8-16.801,16.8C608.55,95,601.55,87.4,601.55,78.3z M630.15,78.3v-0.1c0-6.9-5.199-12.601-11.9-12.601
			c-7,0-11.699,5.7-11.699,12.4v0.1c0,6.9,5.1,12.5,11.9,12.5C625.25,90.7,630.15,85.1,630.15,78.3z"/>
		<path fill="#7D888E" d="M639.15,82.1v-20h4.801v18.8c0,6,3.199,9.7,8.898,9.7c5.5,0,9.602-4,9.602-10.1V62.1h4.699V94.2h-4.699
			V88.6c-2.201,3.5-5.5,6.3-11,6.3C643.65,94.9,639.15,89.7,639.15,82.1z"/>
		<path fill="#7D888E" d="M672.05,78.3v-0.1c0-10.5,7.6-16.7,15.299-16.7c6,0,9.801,3.2,12.301,6.8V48.9h4.801v45.4h-4.801v-6.5
			c-2.6,3.9-6.4,7.1-12.301,7.1C679.65,94.9,672.05,88.9,672.05,78.3z M699.849,78.2V78.1c0-7.399-5.699-12.399-11.6-12.399
			c-6.199,0-11.299,4.6-11.299,12.399V78.2c0,7.6,5.199,12.399,11.299,12.399C694.15,90.7,699.849,85.6,699.849,78.2z"/>
	</g>
</g>
</svg>
