<?xml version="1.0" encoding="utf-8"?>
<!-- Generator: Adobe Illustrator 16.0.0, SVG Export Plug-In . SVG Version: 6.00 Build 0)  -->
<!DOCTYPE svg PUBLIC "-//W3C//DTD SVG 1.1//EN" "http://www.w3.org/Graphics/SVG/1.1/DTD/svg11.dtd">
<svg version="1.1" id="Layer_1" xmlns="http://www.w3.org/2000/svg" xmlns:xlink="http://www.w3.org/1999/xlink" x="0px" y="0px"
	 width="704.701px" height="175.1px" viewBox="0 0 704.701 175.1" enable-background="new 0 0 704.701 175.1" xml:space="preserve">
<path d="M103.75,19.1c8.1-8.398,19.3-13.6,31.7-13.6c16.5,0,30.899,9.2,38.6,22.898c6.7-3,14-4.6,21.8-4.6
	c29.801,0,53.9,24.4,53.9,54.4s-24.1,54.398-53.9,54.398c-3.6,0-7.199-0.398-10.6-1.1c-6.8,12-19.6,20.2-34.4,20.2
	c-6.199,0-12-1.4-17.199-4c-6.801,16.1-22.801,27.398-41.4,27.398c-19.4,0-35.9-12.3-42.2-29.398c-2.8,0.6-5.6,0.898-8.6,0.898
	c-23.101,0-41.7-18.898-41.7-42.2c0-15.6,8.4-29.198,20.9-36.5c-2.601-5.898-4-12.398-4-19.3C16.549,21.7,38.349,0,65.15,0
	C80.95,0,94.95,7.5,103.75,19.1"/>
<path fill="#FFFFFF" d="M35.95,90.8c-0.2,0.4,0.1,0.5,0.1,0.6c0.5,0.302,0.9,0.602,1.4,0.9c2.6,1.4,5,1.7,7.5,1.7
	c5.1,0,8.3-2.7,8.3-7.102v-0.1c0-4.1-3.6-5.5-7-6.6l-0.4-0.2c-2.5-0.8-4.699-1.5-4.699-3.2v-0.1c0-1.4,1.3-2.5,3.3-2.5
	c2.2,0,4.8,0.698,6.5,1.698c0,0,0.5,0.302,0.7-0.198c0.1-0.302,1-2.602,1-2.802c0.1-0.3-0.101-0.5-0.2-0.6c-1.9-1.2-4.601-2-7.4-2
	h-0.5c-4.7,0-8,2.8-8,6.9v0.1c0,4.3,3.601,5.7,7,6.6l0.5,0.2c2.5,0.8,4.601,1.4,4.601,3.102v0.1c0,1.6-1.4,2.8-3.601,2.8
	c-0.899,0-3.6,0-6.6-1.898c-0.4-0.2-0.601-0.4-0.8-0.5c-0.101-0.102-0.5-0.2-0.7,0.198L35.95,90.8z"/>
<path fill="#FFFFFF" d="M111.049,90.8c-0.2,0.4,0.101,0.5,0.101,0.6c0.5,0.302,0.899,0.602,1.399,0.9c2.601,1.4,5,1.7,7.5,1.7
	c5.101,0,8.3-2.7,8.3-7.102v-0.1c0-4.1-3.6-5.5-7-6.6l-0.399-0.1c-2.5-0.8-4.7-1.5-4.7-3.2v-0.1c0-1.4,1.3-2.5,3.3-2.5
	c2.2,0,4.8,0.7,6.5,1.7c0,0,0.5,0.3,0.7-0.2c0.1-0.3,1-2.6,1-2.8c0.1-0.3-0.1-0.5-0.2-0.602c-1.899-1.198-4.6-2-7.399-2h-0.5
	c-4.7,0-8,2.802-8,6.9v0.1c0,4.302,3.6,5.7,7,6.602l0.5,0.2c2.5,0.8,4.6,1.398,4.6,3.1v0.1c0,1.602-1.4,2.802-3.6,2.802
	c-0.9,0-3.601,0-6.601-1.9c-0.399-0.2-0.6-0.4-0.8-0.5c-0.1-0.1-0.5-0.2-0.7,0.2L111.049,90.8z"/>
<path fill="#FFFFFF" d="M166.65,77.6c-0.4-1.398-1.101-2.7-1.9-3.7c-0.9-1-2-1.898-3.3-2.5c-1.3-0.6-2.9-0.898-4.601-0.898
	c-1.699,0-3.3,0.3-4.6,0.898c-1.3,0.602-2.4,1.5-3.3,2.5c-0.9,1-1.5,2.302-1.9,3.7c-0.399,1.4-0.6,3-0.6,4.602
	c0,1.6,0.2,3.198,0.6,4.6c0.4,1.4,1.101,2.7,1.9,3.7c0.899,1,2,1.898,3.3,2.5c1.3,0.6,2.9,0.898,4.6,0.898
	c1.7,0,3.301-0.3,4.601-0.898c1.3-0.602,2.399-1.4,3.3-2.5c0.9-1,1.5-2.3,1.9-3.7c0.399-1.4,0.6-3,0.6-4.6
	C167.25,80.5,167.049,79,166.65,77.6 M162.349,82.2c0,2.5-0.5,4.398-1.399,5.8c-0.9,1.398-2.3,2-4.2,2s-3.3-0.7-4.2-2
	c-0.899-1.4-1.399-3.3-1.399-5.8s0.5-4.4,1.399-5.802c0.9-1.398,2.2-2,4.2-2c1.9,0,3.3,0.7,4.2,2
	C161.849,77.7,162.349,79.7,162.349,82.2"/>
<path fill="#FFFFFF" d="M201.75,89.4c-0.1-0.398-0.5-0.3-0.5-0.3c-0.6,0.2-1.3,0.5-2,0.602c-0.7,0.1-1.5,0.198-2.3,0.198
	c-2.101,0-3.7-0.6-4.9-1.8c-1.2-1.2-1.8-3.2-1.8-5.898c0-2.4,0.6-4.2,1.6-5.602c1-1.398,2.601-2.1,4.801-2.1c1.8,0,3.1,0.2,4.5,0.6
	c0,0,0.3,0.102,0.5-0.3c0.399-1,0.699-1.8,1.1-2.9c0.1-0.3-0.2-0.5-0.3-0.5c-0.601-0.198-1.9-0.6-2.9-0.698
	c-0.899-0.102-2-0.2-3.2-0.2c-1.8,0-3.399,0.3-4.8,0.898c-1.399,0.602-2.5,1.4-3.5,2.5c-0.899,1-1.6,2.302-2.1,3.7
	c-0.5,1.4-0.7,3-0.7,4.602c0,3.6,1,6.398,2.8,8.5c1.9,2.1,4.7,3.198,8.5,3.198c2.2,0,4.4-0.398,6.101-1.1c0,0,0.3-0.2,0.199-0.5
	L201.75,89.4z"/>
<path fill="#FFFFFF" d="M223.65,76.8c-0.4-1.4-1.301-2.8-1.9-3.4c-0.9-1-1.8-1.698-2.8-2.1c-1.2-0.5-2.601-0.8-4.2-0.8
	c-1.8,0-3.5,0.3-4.8,0.898c-1.3,0.602-2.5,1.5-3.3,2.5c-0.9,1.102-1.5,2.302-2,3.802c-0.4,1.398-0.601,3-0.601,4.6
	c0,1.7,0.2,3.2,0.7,4.6c0.4,1.4,1.1,2.7,2.1,3.7s2.2,1.8,3.601,2.4c1.5,0.6,3.2,0.898,5.3,0.8c4.2,0,6.4-0.9,7.3-1.4
	c0.2-0.1,0.3-0.198,0.101-0.698l-1-2.7c-0.101-0.4-0.5-0.2-0.5-0.2c-1,0.4-2.5,1.1-6,1.1c-2.2,0-3.9-0.698-5-1.698
	c-1.101-1.102-1.601-2.602-1.7-4.802h14.5c0,0,0.399,0,0.399-0.398C224.15,82.9,224.65,80,223.65,76.8 M209.25,79.8
	c0.2-1.4,0.6-2.5,1.2-3.4c0.899-1.398,2.2-2.1,4.1-2.1c1.9,0,3.2,0.8,4.101,2.1c0.6,0.9,0.899,2.102,1,3.4H209.25z"/>
<path fill="#FFFFFF" d="M107.549,76.8c-0.399-1.4-1.3-2.8-1.899-3.4c-0.9-1-1.801-1.698-2.801-2.1c-1.199-0.5-2.6-0.8-4.199-0.8
	c-1.801,0-3.5,0.3-4.801,0.898c-1.3,0.602-2.5,1.5-3.3,2.5c-0.899,1.102-1.5,2.302-2,3.802c-0.399,1.398-0.6,3-0.6,4.6
	c0,1.7,0.2,3.2,0.7,4.6c0.399,1.4,1.1,2.7,2.1,3.7s2.2,1.8,3.6,2.4c1.5,0.6,3.2,0.898,5.301,0.8c4.199,0,6.399-0.9,7.3-1.4
	c0.2-0.1,0.3-0.198,0.1-0.698l-1-2.7c-0.1-0.4-0.5-0.2-0.5-0.2c-1,0.4-2.5,1.1-6,1.1c-2.2,0-3.899-0.698-5-1.698
	c-1.1-1.102-1.6-2.602-1.7-4.802h14.5c0,0,0.4,0,0.4-0.398C108.049,82.9,108.549,80,107.549,76.8 M93.15,79.8
	c0.199-1.4,0.6-2.5,1.199-3.4c0.9-1.398,2.2-2.1,4.101-2.1c1.899,0,3.2,0.8,4.1,2.1c0.601,0.9,0.9,2.102,1,3.4H93.15z"/>
<path fill="#FFFFFF" d="M67.549,79.1c-0.6,0-1.3-0.1-2.3-0.1c-1.2,0-2.4,0.2-3.6,0.5c-1.101,0.3-2.2,0.8-3,1.398
	c-0.9,0.602-1.601,1.4-2.101,2.4s-0.8,2.1-0.8,3.3c0,1.3,0.2,2.4,0.7,3.3c0.399,0.9,1.1,1.7,1.899,2.302c0.801,0.6,1.801,1,3,1.3
	c1.101,0.3,2.4,0.398,3.801,0.398c1.5,0,3-0.1,4.399-0.398c1.4-0.2,3.2-0.602,3.7-0.7s1-0.3,1-0.3c0.4-0.102,0.3-0.5,0.3-0.5V78.7
	c0-2.9-0.8-5.102-2.3-6.4s-3.8-2-6.7-2c-1.1,0-2.8,0.1-3.899,0.4c0,0-3.2,0.6-4.5,1.6c0,0-0.301,0.2-0.101,0.6l1,2.802
	c0.101,0.398,0.5,0.198,0.5,0.198s0.101,0,0.2-0.1c2.8-1.5,6.3-1.5,6.3-1.5c1.601,0,2.8,0.3,3.601,0.9c0.8,0.6,1.199,1.5,1.199,3.5
	v0.6C68.75,79.2,67.549,79.1,67.549,79.1 M61.849,89.3c-0.6-0.5-0.6-0.6-0.8-0.9c-0.3-0.398-0.5-1-0.5-1.898c0-1.3,0.4-2.2,1.3-2.8
	c0,0,1.2-1.102,4.2-1c2.101,0,3.9,0.3,3.9,0.3v6.6c0,0-1.8,0.4-3.9,0.5C63.15,90.3,61.849,89.3,61.849,89.3"/>
<path fill="#FFFFFF" d="M184.549,71.6c0.101-0.3-0.1-0.5-0.2-0.5c-0.199-0.1-1.5-0.398-2.399-0.398c-1.8-0.102-2.8,0.198-3.7,0.6
	s-1.9,1.1-2.4,1.8v-1.8c0-0.2-0.199-0.4-0.399-0.4h-3.9c-0.2,0-0.399,0.2-0.399,0.4V93c0,0.2,0.199,0.398,0.399,0.398h3.8
	c0.2,0,0.4-0.198,0.4-0.398V82.2c0-1.5,0.2-2.9,0.5-3.802c0.3-0.898,0.7-1.6,1.3-2.1c0.5-0.5,1.101-0.9,1.8-1.1
	c0.7-0.2,1.4-0.302,1.9-0.302c0.8,0,1.6,0.2,1.6,0.2c0.301,0,0.4-0.1,0.5-0.398C183.65,74,184.349,72,184.549,71.6"/>
<path fill="#FFFFFF" d="M148.75,61.6c-0.5-0.1-0.9-0.2-1.4-0.3c-0.6-0.1-1.199-0.2-2-0.2c-2.6,0-4.699,0.7-6.1,2.2s-2.4,3.7-2.9,6.6
	l-0.199,1h-3.301c0,0-0.399,0-0.5,0.4l-0.5,3c0,0.3,0.101,0.5,0.5,0.5h3.2l-3.3,18.1c-0.3,1.5-0.5,2.7-0.9,3.602
	c-0.3,0.898-0.6,1.6-1,2.1c-0.399,0.5-0.699,0.8-1.3,1c-0.5,0.2-1.1,0.2-1.7,0.2c-0.3,0-0.8-0.1-1.199-0.1
	c-0.301-0.102-0.5-0.102-0.801-0.302c0,0-0.399-0.1-0.5,0.2c-0.1,0.3-1,2.7-1.1,2.9c-0.1,0.3,0,0.5,0.2,0.6
	c0.399,0.2,0.7,0.2,1.3,0.4c0.8,0.2,1.5,0.2,2.1,0.2c1.301,0,2.601-0.2,3.601-0.602c1-0.398,1.899-1,2.7-1.898
	c0.8-0.9,1.399-1.9,1.899-3.2s0.9-3,1.3-4.9l3.301-18.5h4.8c0,0,0.399,0,0.5-0.398l0.5-3c0-0.302-0.101-0.5-0.5-0.5h-4.601
	c0-0.102,0.2-1.7,0.801-3.302c0.199-0.698,0.699-1.198,1-1.5c0.399-0.398,0.8-0.6,1.199-0.8c0.5-0.1,1-0.2,1.601-0.2
	c0.399,0,0.899,0.102,1.2,0.102c0.399,0.1,0.6,0.1,0.699,0.2c0.5,0.1,0.5,0,0.601-0.2l1.1-3C149.15,61.8,148.849,61.7,148.75,61.6"
	/>
<path fill="#FFFFFF" d="M84.049,93c0,0.2-0.2,0.398-0.399,0.398h-3.801C79.65,93.4,79.45,93.2,79.45,93V62c0-0.2,0.2-0.4,0.399-0.4
	h3.7c0.2,0,0.4,0.2,0.4,0.4v31H84.049z"/>
<g>
	<path d="M269.65,62.1h4.8v5.4c2.1-3.2,5-6.102,10.399-6.102c5.2,0,8.601,2.802,10.301,6.4c2.3-3.5,5.699-6.4,11.3-6.4
		c7.399,0,11.899,5,11.899,12.9v19.9h-4.8V75.5c0-6.2-3.1-9.7-8.3-9.7c-4.8,0-8.9,3.6-8.9,9.9v18.5h-4.699V75.4
		c0-6-3.2-9.6-8.301-9.6c-5.1,0-8.899,4.2-8.899,10.1V94.2h-4.8V62.1z"/>
	<path d="M322.349,84.9v-0.1c0-6.9,5.601-10.5,13.7-10.5c4.101,0,7,0.6,9.8,1.4v-1c0-5.7-3.5-8.7-9.5-8.7c-3.8,0-6.8,0.898-9.8,2.3
		l-1.399-3.9c3.5-1.6,7-2.698,11.699-2.698c4.5,0,8.101,1.198,10.4,3.5c2.2,2.198,3.4,5.3,3.4,9.398V94.2h-4.7V89.4
		c-2.2,2.9-5.9,5.5-11.601,5.5C328.25,94.9,322.349,91.5,322.349,84.9z M345.95,82.5v-3c-2.4-0.7-5.5-1.4-9.4-1.4
		c-6,0-9.399,2.602-9.399,6.5V84.7c0,4,3.699,6.398,8.1,6.398C341.15,91.1,345.95,87.5,345.95,82.5z"/>
	<path d="M356.649,62.1h4.801v8.4c2.398-5.3,7-9.2,13.101-8.9v5.2h-0.399c-7,0-12.7,5-12.7,14.7v12.8h-4.8V62.1H356.649z"/>
	<path d="M377.849,48.9h4.801V80.2L399.951,62.1h6L392.45,75.9L406.349,94.2h-5.698l-11.501-15l-6.5,6.6v8.4h-4.801V48.9
		L377.849,48.9z"/>
	<path d="M421.75,90.8c4.4,0,7.5-1.8,10.1-4.5l3,2.7c-3.198,3.6-7.1,6-13.198,6c-8.802,0-16-6.8-16-16.8
		c0-9.302,6.5-16.802,15.399-16.802c9.5,0,15,7.602,15,17c0,0.4,0,0.9-0.1,1.7h-25.5C411.15,86.9,416.05,90.8,421.75,90.8z
		 M431.15,76.3c-0.601-5.8-3.9-10.8-10.302-10.8c-5.5,0-9.799,4.6-10.397,10.8H431.15z"/>
	<path d="M441.951,85.7V66.4h-4.4V62.2h4.5v-9.7h4.799v9.7h10.201V66.4H446.85V85.2c0,3.898,2.201,5.3,5.4,5.3
		c1.6,0,3-0.3,4.701-1.102V93.5c-1.701,0.898-3.5,1.398-5.801,1.398C445.951,94.8,441.951,92.3,441.951,85.7z"/>
	<path d="M461.55,49.8h5.5v5.3h-5.5V49.8z M461.849,62.1h4.802V94.2h-4.802V62.1z"/>
	<path d="M473.65,62.1h4.801V67.7c2.1-3.5,5.5-6.302,11-6.302c7.799,0,12.299,5.2,12.299,12.9v19.9h-4.799V75.5
		c0-6-3.201-9.7-8.9-9.7c-5.5,0-9.6,4-9.6,10.1v18.4h-4.801V62.1z"/>
	<path d="M507.55,99.9l2.199-3.698c3.701,2.698,7.801,4.1,12.399,4.1c7.101,0,11.699-3.9,11.699-11.4V85
		c-2.799,3.7-6.699,6.8-12.6,6.8c-7.699,0-15.1-5.8-15.1-15v-0.1c0-9.4,7.5-15.2,15.1-15.2c6,0,9.9,3,12.6,6.5v-5.8h4.801v26.5
		c0,5-1.5,8.8-4.1,11.398c-2.9,2.9-7.1,4.3-12.201,4.3C516.849,104.3,511.849,102.8,507.55,99.9z M533.951,76.7V76.6
		c0-6.6-5.701-10.898-11.801-10.898c-6.101,0-11.101,4.198-11.101,10.8v0.1c0,6.5,5.199,10.9,11.101,10.9
		C528.15,87.5,533.951,83.1,533.951,76.7z"/>
	<path d="M557.75,78.3v-0.1c0-9.102,7.1-16.802,16.5-16.802c6.1,0,9.9,2.5,12.9,5.7l-3.199,3.4c-2.5-2.7-5.4-4.8-9.801-4.8
		c-6.5,0-11.5,5.5-11.5,12.398V78.2c0,7,5.1,12.5,11.801,12.5c4.1,0,7.299-2.102,9.799-4.802l3,2.9c-3.199,3.6-7.1,6.2-13.1,6.2
		C564.849,95,557.75,87.4,557.75,78.3z"/>
	<path d="M591.65,48.9h4.801v45.4h-4.801V48.9z"/>
	<path d="M601.55,78.3v-0.1c0-9.102,7.101-16.802,16.799-16.802c9.603,0,16.701,7.602,16.701,16.7V78.2c0,9.1-7.1,16.8-16.801,16.8
		C608.55,95,601.55,87.4,601.55,78.3z M630.15,78.3v-0.1c0-6.9-5.199-12.602-11.9-12.602c-7,0-11.699,5.7-11.699,12.4v0.1
		c0,6.9,5.101,12.5,11.9,12.5C625.25,90.7,630.15,85.1,630.15,78.3z"/>
	<path d="M639.15,82.1v-20h4.801v18.8c0,6,3.199,9.7,8.898,9.7c5.5,0,9.602-4,9.602-10.1V62.1h4.699V94.2h-4.699V88.6
		c-2.201,3.5-5.5,6.3-11,6.3C643.65,94.9,639.15,89.7,639.15,82.1z"/>
	<path d="M672.05,78.3v-0.1c0-10.5,7.601-16.7,15.299-16.7c6,0,9.802,3.2,12.302,6.8V48.9h4.801v45.4h-4.801v-6.5
		c-2.601,3.9-6.4,7.1-12.302,7.1C679.65,94.9,672.05,88.9,672.05,78.3z M699.849,78.2V78.1c0-7.398-5.698-12.398-11.6-12.398
		c-6.199,0-11.299,4.6-11.299,12.398V78.2c0,7.6,5.198,12.398,11.299,12.398C694.15,90.7,699.849,85.6,699.849,78.2z"/>
</g>
</svg>
