<?xml version="1.0" encoding="utf-8"?>
<!-- Generator: Adobe Illustrator 16.0.0, SVG Export Plug-In . SVG Version: 6.00 Build 0)  -->
<!DOCTYPE svg PUBLIC "-//W3C//DTD SVG 1.1//EN" "http://www.w3.org/Graphics/SVG/1.1/DTD/svg11.dtd">
<svg version="1.1" id="Layer_1" xmlns="http://www.w3.org/2000/svg" xmlns:xlink="http://www.w3.org/1999/xlink" x="0px" y="0px"
	 width="704.701px" height="175.1px" viewBox="0 0 704.701 175.1" enable-background="new 0 0 704.701 175.1" xml:space="preserve">
<g>
	<path fill="#FFFFFF" d="M214.55,74.3c-1.9,0-3.201,0.701-4.1,2.1c-0.6,0.9-1,2-1.2,3.4h10.401c-0.101-1.299-0.4-2.5-1-3.4
		C217.75,75.1,216.45,74.3,214.55,74.3z"/>
	<path fill="#FFFFFF" d="M61.849,83.701c-0.9,0.6-1.3,1.5-1.3,2.8c0,0.898,0.2,1.5,0.5,1.898c0.2,0.301,0.2,0.4,0.8,0.9
		c0,0,1.301,1,4.2,0.801c2.1-0.1,3.9-0.5,3.9-0.5v-6.6c0,0-1.799-0.3-3.9-0.3C63.049,82.6,61.849,83.701,61.849,83.701z"/>
	<path fill="#FFFFFF" d="M156.75,74.399c-2,0-3.3,0.602-4.2,2c-0.899,1.401-1.399,3.302-1.399,5.802s0.5,4.399,1.399,5.8
		c0.9,1.3,2.3,2,4.2,2s3.3-0.602,4.2-2c0.899-1.401,1.399-3.3,1.399-5.8s-0.5-4.5-1.399-5.802
		C160.05,75.099,158.65,74.399,156.75,74.399z"/>
	<path fill="#FFFFFF" d="M195.85,23.799c-7.8,0-15.1,1.6-21.8,4.6C166.349,14.7,151.95,5.5,135.45,5.5c-12.4,0-23.6,5.201-31.7,13.6
		C94.95,7.5,80.95,0,65.15,0C38.349,0,16.549,21.7,16.651,48.597c0,6.901,1.399,13.401,4,19.3c-12.5,7.302-20.9,20.9-20.9,36.5
		c0,23.302,18.599,42.2,41.7,42.2c3,0,5.8-0.299,8.6-0.898c6.3,17.099,22.8,29.398,42.2,29.398c18.599,0,34.599-11.299,41.4-27.398
		c5.199,2.6,11,4,17.199,4c14.8,0,27.6-8.2,34.4-20.2c3.401,0.701,7,1.1,10.6,1.1c29.8,0,53.9-24.398,53.9-54.398
		S225.651,23.799,195.85,23.799z M53.25,86.899c0,4.401-3.2,7.102-8.3,7.102c-2.5,0-4.9-0.3-7.5-1.7c-0.5-0.299-0.9-0.599-1.4-0.9
		c0-0.1-0.3-0.199-0.1-0.6l1.001-2.901c0.2-0.398,0.599-0.3,0.7-0.198c0.199,0.1,0.4,0.3,0.8,0.5c3,1.898,5.701,1.898,6.6,1.898
		c2.201,0,3.601-1.2,3.601-2.8v-0.1c0-1.701-2.101-2.302-4.601-3.102l-0.5-0.2c-3.399-0.899-7-2.3-7-6.6v-0.1c0-4.101,3.3-6.9,8-6.9
		h0.5c2.799,0,5.5,0.8,7.4,2c0.099,0.1,0.3,0.3,0.2,0.6c0,0.2-0.9,2.5-1,2.802c-0.2,0.5-0.7,0.198-0.7,0.198
		c-1.7-1-4.3-1.698-6.5-1.698c-2,0-3.3,1.1-3.3,2.5v0.1c0,1.7,2.199,2.4,4.699,3.2l0.4,0.2c3.4,1.1,7,2.5,7,6.6V86.899z
		 M74.247,92.5c0,0-0.5,0.201-1,0.3s-2.3,0.5-3.7,0.7c-1.399,0.299-2.899,0.398-4.399,0.398c-1.401,0-2.7-0.099-3.801-0.398
		c-1.199-0.3-2.199-0.7-3-1.3c-0.799-0.602-1.5-1.401-1.899-2.302c-0.5-0.899-0.7-2-0.7-3.3c0-1.2,0.3-2.3,0.8-3.3
		s1.201-1.799,2.101-2.4c0.8-0.599,1.899-1.099,3-1.398c1.2-0.3,2.4-0.5,3.6-0.5c1,0,1.7,0.1,2.3,0.1c0,0,1.201,0.101,2.298,0.2
		v-0.6c0-2-0.399-2.9-1.199-3.5c-0.801-0.601-2-0.9-3.601-0.9c0,0-3.5,0-6.3,1.5c-0.099,0.1-0.2,0.1-0.2,0.1s-0.399,0.2-0.5-0.198
		l-1-2.802c-0.2-0.399,0.101-0.6,0.101-0.6c1.3-1,4.5-1.6,4.5-1.6c1.099-0.301,2.799-0.4,3.899-0.4c2.9,0,5.2,0.701,6.7,2
		s2.3,3.5,2.3,6.4V92C74.547,92,74.647,92.399,74.247,92.5z M83.65,93.399h-3.801C79.65,93.4,79.45,93.2,79.45,93V62
		c0-0.2,0.2-0.4,0.399-0.4h3.7c0.2,0,0.4,0.2,0.4,0.4v31h0.1C84.049,93.2,83.849,93.399,83.65,93.399z M107.75,83.002
		c0,0.398-0.4,0.398-0.4,0.398h-14.5c0.1,2.2,0.6,3.7,1.7,4.802c1.101,1,2.8,1.698,5,1.698c3.5,0,5-0.699,6-1.1c0,0,0.4-0.2,0.5,0.2
		l1,2.7c0.2,0.5,0.1,0.599-0.1,0.698c-0.901,0.5-3.101,1.4-7.3,1.4c-2.101,0.099-3.801-0.2-5.301-0.8c-1.4-0.601-2.6-1.4-3.6-2.4
		s-1.701-2.3-2.1-3.7c-0.5-1.399-0.7-2.899-0.7-4.6c0-1.6,0.201-3.201,0.6-4.6c0.5-1.5,1.101-2.7,2-3.802c0.8-1,2-1.898,3.3-2.5
		c1.301-0.599,3-0.898,4.801-0.898c1.599,0,3,0.3,4.199,0.8c1,0.401,1.901,1.1,2.801,2.1c0.599,0.601,1.5,2,1.899,3.4
		C108.549,80,108.049,82.9,107.75,83.002z M120.049,94c-2.5,0-4.899-0.3-7.5-1.7c-0.5-0.299-0.899-0.599-1.399-0.9
		c0-0.1-0.301-0.199-0.101-0.6l1.001-2.799c0.2-0.4,0.6-0.3,0.7-0.2c0.2,0.1,0.401,0.3,0.8,0.5c3,1.9,5.701,1.9,6.601,1.9
		c2.2,0,3.6-1.2,3.6-2.802v-0.1c0-1.701-2.1-2.3-4.6-3.1l-0.5-0.2c-3.4-0.901-7-2.3-7-6.602v-0.1c0-4.099,3.3-6.9,8-6.9h0.5
		c2.799,0,5.5,0.802,7.399,2c0.1,0.102,0.3,0.302,0.2,0.602c0,0.2-0.9,2.5-1,2.8c-0.2,0.5-0.7,0.2-0.7,0.2c-1.7-1-4.3-1.7-6.5-1.7
		c-2,0-3.3,1.1-3.3,2.5v0.1c0,1.7,2.2,2.4,4.7,3.2l0.399,0.1c3.4,1.1,7,2.5,7,6.6v0.1C128.349,91.3,125.15,94,120.049,94z
		 M145.451,74.201c-0.101,0.398-0.5,0.398-0.5,0.398h-4.8l-3.301,18.5c-0.4,1.9-0.8,3.601-1.3,4.9s-1.099,2.3-1.899,3.2
		c-0.801,0.898-1.7,1.5-2.7,1.898c-1,0.401-2.3,0.602-3.601,0.602c-0.6,0-1.3,0-2.1-0.2c-0.6-0.2-0.901-0.2-1.3-0.4
		c-0.2-0.1-0.3-0.3-0.2-0.6c0.1-0.2,1-2.601,1.1-2.9c0.101-0.3,0.5-0.2,0.5-0.2c0.301,0.2,0.5,0.2,0.801,0.302
		c0.399,0,0.899,0.1,1.199,0.1c0.6,0,1.2,0,1.7-0.2c0.601-0.2,0.901-0.5,1.3-1c0.4-0.5,0.7-1.201,1-2.1
		c0.4-0.901,0.6-2.102,0.9-3.602l3.3-18.1h-3.2c-0.399,0-0.5-0.2-0.5-0.5l0.5-3c0.101-0.4,0.5-0.4,0.5-0.4h3.301l0.199-1
		c0.5-2.899,1.499-5.1,2.9-6.6s3.5-2.2,6.1-2.2c0.801,0,1.4,0.101,2,0.2c0.5,0.1,0.9,0.2,1.4,0.3c0.099,0.101,0.4,0.2,0.301,0.401
		l-1.1,3c-0.101,0.2-0.101,0.3-0.601,0.2c-0.099-0.101-0.3-0.101-0.699-0.2c-0.301,0-0.801-0.102-1.2-0.102
		c-0.601,0-1.101,0.101-1.601,0.2c-0.399,0.2-0.8,0.401-1.199,0.8c-0.301,0.302-0.801,0.802-1,1.5
		c-0.601,1.602-0.801,3.2-0.801,3.302h4.601c0.399,0,0.5,0.198,0.5,0.5L145.451,74.201z M166.65,86.801c-0.4,1.4-1,2.7-1.9,3.7
		c-0.901,1.1-2,1.898-3.3,2.5c-1.3,0.599-2.901,0.898-4.601,0.898c-1.7,0-3.3-0.299-4.6-0.898c-1.3-0.602-2.401-1.5-3.3-2.5
		c-0.799-1-1.5-2.3-1.9-3.7c-0.4-1.401-0.6-3-0.6-4.6c0-1.602,0.201-3.201,0.6-4.602c0.4-1.398,1-2.7,1.9-3.7c0.9-1,2-1.898,3.3-2.5
		c1.3-0.599,2.901-0.898,4.6-0.898c1.701,0,3.301,0.299,4.601,0.898c1.3,0.602,2.4,1.5,3.3,2.5c0.799,1,1.5,2.302,1.9,3.7
		c0.399,1.4,0.6,2.9,0.6,4.602C167.25,83.801,167.049,85.401,166.65,86.801z M184.549,71.6c-0.2,0.4-0.899,2.4-1.198,3.1
		c-0.1,0.299-0.199,0.398-0.5,0.398c0,0-0.8-0.2-1.6-0.2c-0.5,0-1.2,0.102-1.9,0.302c-0.699,0.199-1.3,0.6-1.8,1.1
		c-0.6,0.5-1,1.201-1.3,2.1c-0.3,0.901-0.5,2.302-0.5,3.802V93c0,0.2-0.2,0.398-0.4,0.398h-3.8c-0.2,0-0.399-0.198-0.399-0.398
		V71.301c0-0.2,0.199-0.4,0.399-0.4h3.9c0.2,0,0.399,0.2,0.399,0.4v1.8c0.5-0.7,1.5-1.398,2.4-1.8s1.9-0.701,3.7-0.6
		c0.899,0,2.2,0.299,2.399,0.398C184.449,71.1,184.65,71.3,184.549,71.6z M202.652,92.8c-1.701,0.701-3.901,1.1-6.101,1.1
		c-3.8,0-6.6-1.099-8.5-3.198c-1.8-2.102-2.8-4.9-2.8-8.5c0-1.602,0.2-3.201,0.7-4.602c0.5-1.398,1.201-2.7,2.1-3.7
		c1-1.1,2.101-1.898,3.5-2.5c1.401-0.599,3-0.898,4.8-0.898c1.2,0,2.301,0.099,3.2,0.2c1,0.099,2.299,0.5,2.9,0.698
		c0.1,0,0.4,0.2,0.3,0.5c-0.401,1.101-0.701,1.9-1.1,2.9c-0.2,0.401-0.5,0.3-0.5,0.3c-1.4-0.399-2.7-0.6-4.5-0.6
		c-2.2,0-3.801,0.701-4.801,2.1c-1,1.401-1.6,3.201-1.6,5.602c0,2.698,0.6,4.698,1.8,5.898c1.2,1.2,2.799,1.8,4.9,1.8
		c0.8,0,1.6-0.099,2.3-0.198c0.7-0.102,1.4-0.401,2-0.602c0,0,0.4-0.099,0.5,0.3l1.101,2.9C202.952,92.6,202.652,92.8,202.652,92.8z
		 M223.85,83.002c0,0.398-0.399,0.398-0.399,0.398h-14.5c0.099,2.2,0.599,3.7,1.7,4.802c1.1,1,2.8,1.698,5,1.698
		c3.5,0,5-0.699,6-1.1c0,0,0.399-0.2,0.5,0.2l1,2.7c0.199,0.5,0.099,0.599-0.101,0.698c-0.9,0.5-3.1,1.4-7.3,1.4
		c-2.1,0.099-3.8-0.2-5.3-0.8c-1.401-0.601-2.601-1.4-3.601-2.4s-1.7-2.3-2.1-3.7c-0.5-1.399-0.7-2.899-0.7-4.6
		c0-1.6,0.201-3.201,0.601-4.6c0.5-1.5,1.1-2.7,2-3.802c0.8-1,2-1.898,3.3-2.5c1.3-0.599,3-0.898,4.8-0.898c1.599,0,3,0.3,4.2,0.8
		c1,0.401,1.9,1.1,2.8,2.1c0.599,0.601,1.5,2,1.9,3.4C224.65,80,224.15,82.9,223.85,83.002z"/>
	<path fill="#FFFFFF" d="M98.45,74.3c-1.901,0-3.201,0.701-4.101,2.1c-0.599,0.9-1,2-1.199,3.4h10.4c-0.1-1.299-0.399-2.5-1-3.4
		C101.65,75.1,100.349,74.3,98.45,74.3z"/>
</g>
<g>
	<path fill="#FFFFFF" d="M269.65,62.1h4.8v5.4c2.1-3.2,5-6.102,10.399-6.102c5.2,0,8.601,2.802,10.301,6.4
		c2.3-3.5,5.699-6.4,11.3-6.4c7.399,0,11.899,5,11.899,12.9v19.9h-4.8V75.5c0-6.2-3.1-9.7-8.3-9.7c-4.8,0-8.9,3.6-8.9,9.9v18.5
		h-4.699V75.4c0-6-3.2-9.6-8.301-9.6c-5.1,0-8.899,4.2-8.899,10.1V94.2h-4.8V62.1z"/>
	<path fill="#FFFFFF" d="M322.349,84.9v-0.1c0-6.9,5.601-10.5,13.7-10.5c4.101,0,7,0.6,9.8,1.4v-1c0-5.7-3.5-8.7-9.5-8.7
		c-3.8,0-6.8,0.898-9.8,2.3l-1.399-3.9c3.5-1.6,7-2.698,11.699-2.698c4.5,0,8.101,1.198,10.4,3.5c2.2,2.198,3.4,5.3,3.4,9.398V94.2
		h-4.7V89.4c-2.2,2.9-5.9,5.5-11.601,5.5C328.25,94.9,322.349,91.5,322.349,84.9z M345.95,82.5v-3c-2.4-0.7-5.5-1.4-9.4-1.4
		c-6,0-9.399,2.602-9.399,6.5V84.7c0,4,3.699,6.398,8.1,6.398C341.15,91.1,345.95,87.5,345.95,82.5z"/>
	<path fill="#FFFFFF" d="M356.649,62.1h4.801v8.4c2.398-5.3,7-9.2,13.101-8.9v5.2h-0.399c-7,0-12.7,5-12.7,14.7v12.8h-4.8V62.1
		H356.649z"/>
	<path fill="#FFFFFF" d="M377.849,48.9h4.801V80.2L399.951,62.1h6L392.45,75.9L406.349,94.2h-5.698l-11.501-15l-6.5,6.6v8.4h-4.801
		V48.9L377.849,48.9z"/>
	<path fill="#FFFFFF" d="M421.75,90.8c4.4,0,7.5-1.8,10.1-4.5l3,2.7c-3.198,3.6-7.1,6-13.198,6c-8.802,0-16-6.8-16-16.8
		c0-9.302,6.5-16.802,15.399-16.802c9.5,0,15,7.602,15,17c0,0.4,0,0.9-0.1,1.7h-25.5C411.15,86.9,416.05,90.8,421.75,90.8z
		 M431.15,76.3c-0.601-5.8-3.9-10.8-10.302-10.8c-5.5,0-9.799,4.6-10.397,10.8H431.15z"/>
	<path fill="#FFFFFF" d="M441.951,85.7V66.4h-4.4V62.2h4.5v-9.7h4.799v9.7h10.201V66.4H446.85V85.2c0,3.898,2.201,5.3,5.4,5.3
		c1.6,0,3-0.3,4.701-1.102V93.5c-1.701,0.898-3.5,1.398-5.801,1.398C445.951,94.8,441.951,92.3,441.951,85.7z"/>
	<path fill="#FFFFFF" d="M461.55,49.8h5.5v5.3h-5.5V49.8z M461.849,62.1h4.802V94.2h-4.802V62.1z"/>
	<path fill="#FFFFFF" d="M473.65,62.1h4.801V67.7c2.1-3.5,5.5-6.302,11-6.302c7.799,0,12.299,5.2,12.299,12.9v19.9h-4.799V75.5
		c0-6-3.201-9.7-8.9-9.7c-5.5,0-9.6,4-9.6,10.1v18.4h-4.801V62.1z"/>
	<path fill="#FFFFFF" d="M507.55,99.9l2.199-3.698c3.701,2.698,7.801,4.1,12.399,4.1c7.101,0,11.699-3.9,11.699-11.4V85
		c-2.799,3.7-6.699,6.8-12.6,6.8c-7.699,0-15.1-5.8-15.1-15v-0.1c0-9.4,7.5-15.2,15.1-15.2c6,0,9.9,3,12.6,6.5v-5.8h4.801v26.5
		c0,5-1.5,8.8-4.1,11.398c-2.9,2.9-7.1,4.3-12.201,4.3C516.849,104.3,511.849,102.8,507.55,99.9z M533.951,76.7V76.6
		c0-6.6-5.701-10.898-11.801-10.898c-6.101,0-11.101,4.198-11.101,10.8v0.1c0,6.5,5.199,10.9,11.101,10.9
		C528.15,87.5,533.951,83.1,533.951,76.7z"/>
	<path fill="#FFFFFF" d="M557.75,78.3v-0.1c0-9.102,7.1-16.802,16.5-16.802c6.1,0,9.9,2.5,12.9,5.7l-3.199,3.4
		c-2.5-2.7-5.4-4.8-9.801-4.8c-6.5,0-11.5,5.5-11.5,12.398V78.2c0,7,5.1,12.5,11.801,12.5c4.1,0,7.299-2.102,9.799-4.802l3,2.9
		c-3.199,3.6-7.1,6.2-13.1,6.2C564.849,95,557.75,87.4,557.75,78.3z"/>
	<path fill="#FFFFFF" d="M591.65,48.9h4.801v45.4h-4.801V48.9z"/>
	<path fill="#FFFFFF" d="M601.55,78.3v-0.1c0-9.102,7.101-16.802,16.799-16.802c9.603,0,16.701,7.602,16.701,16.7V78.2
		c0,9.1-7.1,16.8-16.801,16.8C608.55,95,601.55,87.4,601.55,78.3z M630.15,78.3v-0.1c0-6.9-5.199-12.602-11.9-12.602
		c-7,0-11.699,5.7-11.699,12.4v0.1c0,6.9,5.101,12.5,11.9,12.5C625.25,90.7,630.15,85.1,630.15,78.3z"/>
	<path fill="#FFFFFF" d="M639.15,82.1v-20h4.801v18.8c0,6,3.199,9.7,8.898,9.7c5.5,0,9.602-4,9.602-10.1V62.1h4.699V94.2h-4.699
		V88.6c-2.201,3.5-5.5,6.3-11,6.3C643.65,94.9,639.15,89.7,639.15,82.1z"/>
	<path fill="#FFFFFF" d="M672.05,78.3v-0.1c0-10.5,7.601-16.7,15.299-16.7c6,0,9.802,3.2,12.302,6.8V48.9h4.801v45.4h-4.801v-6.5
		c-2.601,3.9-6.4,7.1-12.302,7.1C679.65,94.9,672.05,88.9,672.05,78.3z M699.849,78.2V78.1c0-7.398-5.698-12.398-11.6-12.398
		c-6.199,0-11.299,4.6-11.299,12.398V78.2c0,7.6,5.198,12.398,11.299,12.398C694.15,90.7,699.849,85.6,699.849,78.2z"/>
</g>
</svg>
